<svg style="position: absolute; width: 0; height: 0;" width="0" height="0" version="1.1"
    xmlns="http://www.w3.org/2000/svg" xmlns:xlink="http://www.w3.org/1999/xlink">
    <defs>
        <symbol id="icon-phone" viewBox="0 0 24 24">
            <title>phone</title>
            <path
                d="M17.4 22A15.42 15.42 0 0 1 2 6.6 4.6 4.6 0 0 1 6.6 2a3.94 3.94 0 0 1 .77.07 3.79 3.79 0 0 1 .72.18 1 1 0 0 1 .65.75l1.37 6a1 1 0 0 1-.26.92c-.13.14-.14.15-1.37.79a9.91 9.91 0 0 0 4.87 4.89c.65-1.24.66-1.25.8-1.38a1 1 0 0 1 .92-.26l6 1.37a1 1 0 0 1 .72.65 4.34 4.34 0 0 1 .19.73 4.77 4.77 0 0 1 .06.76A4.6 4.6 0 0 1 17.4 22zM6.6 4A2.61 2.61 0 0 0 4 6.6 13.41 13.41 0 0 0 17.4 20a2.61 2.61 0 0 0 2.6-2.6v-.33L15.36 16l-.29.55c-.45.87-.78 1.5-1.62 1.16a11.85 11.85 0 0 1-7.18-7.21c-.36-.78.32-1.14 1.18-1.59L8 8.64 6.93 4z" />
        </symbol>
        <symbol id="icon-email" viewBox="0 0 24 24">
            <title>email</title>
            <g fill="none" stroke="currentColor" stroke-linecap="round" stroke-linejoin="round"
                stroke-width="2">
                <rect width="20" height="16" x="2" y="4" rx="2" />
                <path d="m22 7l-8.97 5.7a1.94 1.94 0 0 1-2.06 0L2 7" />
            </g>
        </symbol>
        <symbol id="icon-palette" viewBox="0 0 24 24">
            <title>palette</title>
            <path
                d="M11.6953 2.22656C11.2969 2.23828 10.8867 2.28222 10.4766 2.34374H10.4531C6.45996 2.99706 3.22558 6.14355 2.41406 10.125C2.17089 11.2588 2.18554 12.3164 2.34375 13.3594C2.34961 13.3623 2.34375 13.3769 2.34375 13.3828C2.58984 15.1435 4.875 15.9141 6.16406 14.625C7.08691 13.7021 8.45214 13.7021 9.375 14.625C10.2978 15.5478 10.2978 16.9131 9.375 17.8359C8.08593 19.125 8.85644 21.4102 10.6172 21.6562C10.623 21.6562 10.6377 21.6504 10.6406 21.6562C11.6748 21.8144 12.7266 21.8232 13.8516 21.5859C13.8603 21.5859 13.8662 21.5859 13.875 21.5859C17.8682 20.8418 21.0059 17.5312 21.6562 13.5469V13.5234C22.5059 7.79296 18.3164 2.78906 12.8672 2.27343C12.4775 2.23535 12.0937 2.21484 11.6953 2.22656ZM11.7187 3.72656C12.0586 3.71484 12.3955 3.7207 12.7266 3.74999C17.373 4.1748 20.9062 8.41113 20.1797 13.3125C19.6318 16.6699 16.9394 19.4941 13.5937 20.1094H13.5703C12.6123 20.3144 11.7275 20.3174 10.8281 20.1797C10.2129 20.1035 9.92871 19.415 10.4297 18.9141C11.9062 17.4375 11.9062 15.0469 10.4297 13.5703C8.95312 12.0937 6.5625 12.0937 5.08593 13.5703C4.58496 14.0713 3.89648 13.7871 3.82031 13.1719C3.68261 12.2725 3.68554 11.3877 3.89062 10.4297C4.5791 7.06347 7.33007 4.36816 10.6875 3.82031C11.0391 3.76757 11.3789 3.73828 11.7187 3.72656ZM10.5 5.24999C9.67089 5.24999 9 5.92089 9 6.74999C9 7.5791 9.67089 8.24999 10.5 8.24999C11.3291 8.24999 12 7.5791 12 6.74999C12 5.92089 11.3291 5.24999 10.5 5.24999ZM15.75 6.74999C14.9209 6.74999 14.25 7.42089 14.25 8.24999C14.25 9.0791 14.9209 9.74999 15.75 9.74999C16.5791 9.74999 17.25 9.0791 17.25 8.24999C17.25 7.42089 16.5791 6.74999 15.75 6.74999ZM6.75 8.24999C5.92089 8.24999 5.25 8.92089 5.25 9.74999C5.25 10.5791 5.92089 11.25 6.75 11.25C7.5791 11.25 8.25 10.5791 8.25 9.74999C8.25 8.92089 7.5791 8.24999 6.75 8.24999ZM17.25 12C16.4209 12 15.75 12.6709 15.75 13.5C15.75 14.3291 16.4209 15 17.25 15C18.0791 15 18.75 14.3291 18.75 13.5C18.75 12.6709 18.0791 12 17.25 12ZM14.25 15.75C13.4209 15.75 12.75 16.4209 12.75 17.25C12.75 18.0791 13.4209 18.75 14.25 18.75C15.0791 18.75 15.75 18.0791 15.75 17.25C15.75 16.4209 15.0791 15.75 14.25 15.75Z" />
        </symbol>
        <symbol id="icon-droplets" viewBox="0 0 24 24">
            <title>droplets</title>
            <path
                d="M4.072 20.3a2.999 2.999 0 0 0 3.856 0a3.002 3.002 0 0 0 .67-3.798l-2.095-3.227a.6.6 0 0 0-1.005 0L3.4 16.502a3.003 3.003 0 0 0 .671 3.798zm12 0a2.999 2.999 0 0 0 3.856 0a3.002 3.002 0 0 0 .67-3.798l-2.095-3.227a.6.6 0 0 0-1.005 0L15.4 16.502a3.003 3.003 0 0 0 .671 3.798zm-6-10a2.999 2.999 0 0 0 3.856 0a3.002 3.002 0 0 0 .67-3.798l-2.095-3.227a.6.6 0 0 0-1.005 0L9.4 6.502a3.003 3.003 0 0 0 .671 3.798z" />
        </symbol>
        <symbol id="icon-scissors" viewBox="0 0 24 24">
            <title>scissors</title>
            <path
                d="m23.76 17.75l-9.28-5.52a.25.25 0 0 1 0-.43l9.27-5.31a.48.48 0 0 0 .25-.31a.46.46 0 0 0-.05-.38a2.69 2.69 0 0 0-3.55-.92L9.78 10.8a.25.25 0 0 1-.24 0L7.12 9.49A4.46 4.46 0 1 0 .55 8.05a1 1 0 0 0 .39.38l6.21 3.35a.25.25 0 0 1 0 .44L.94 15.57a1 1 0 0 0-.39.43a4.47 4.47 0 0 0 .73 5.28a4.3 4.3 0 0 0 1.86 1.13a4.46 4.46 0 0 0 4-7.85l2.4-1.36a.23.23 0 0 1 .24 0l10.59 6.14a2.5 2.5 0 0 0 1.26.33a2.7 2.7 0 0 0 2.3-1.25a.5.5 0 0 0-.17-.67M5 8.32l-2.82-1.5a2.39 2.39 0 0 1 .18-2.17a2.42 2.42 0 0 1 2.11-1.2A2.46 2.46 0 0 1 5 8.32m-.53 12.23a2.42 2.42 0 0 1-2.11-1.2a2.41 2.41 0 0 1-.18-2.18L5 15.68a2.46 2.46 0 0 1-.49 4.87Z" />
        </symbol>
        <symbol id="icon-experts" viewBox="0 0 24 24">
            <title>experts</title>
            <path
                d="M8 11A5 5 0 1 0 8 1a5 5 0 0 0 0 10Zm6.643 4.696a6.745 6.745 0 0 0-1.62-2.673C11.772 11.76 10.013 11 8 11c-4 0-7 3-7 7v5h10m1-4.176L16.19 22L23 13"
                fill="none" stroke-linecap="round" stroke-linejoin="round" stroke-width="2" />
        </symbol>
        <symbol id="icon-clock" viewBox="0 0 24 24">
            <title>clock</title>
            <g fill="none" stroke="currentColor" stroke-linecap="round" stroke-linejoin="round"
                stroke-width="2">
                <circle cx="12" cy="12" r="10" />
                <path d="M12 6v6l4 2" />
            </g>
        </symbol>
        <symbol id="icon-check-circle" viewBox="0 0 24 24">
            <path
                d="m14.72 8.79l-4.29 4.3l-1.65-1.65a1 1 0 1 0-1.41 1.41l2.35 2.36a1 1 0 0 0 .71.29a1 1 0 0 0 .7-.29l5-5a1 1 0 0 0 0-1.42a1 1 0 0 0-1.41 0ZM12 2a10 10 0 1 0 10 10A10 10 0 0 0 12 2Zm0 18a8 8 0 1 1 8-8a8 8 0 0 1-8 8Z" />
        </symbol>
        <symbol id="icon-users" viewBox="0 0 24 24">
            <title>user</title>
            <g fill="none" stroke-linecap="round" stroke-linejoin="round" stroke-width="2">
                <path d="M16 21v-2a4 4 0 0 0-4-4H6a4 4 0 0 0-4 4v2" />
                <circle cx="9" cy="7" r="4" />
                <path d="M22 21v-2a4 4 0 0 0-3-3.87m-3-12a4 4 0 0 1 0 7.75" />
            </g>
        </symbol>
        <symbol id="icon-map-pin" viewBox="0 0 24 24">
            <title>map-pin</title>
            <g fill="none" stroke="currentColor" stroke-linecap="round" stroke-linejoin="round"
                stroke-width="2">
                <path d="M20 10c0 6-8 12-8 12s-8-6-8-12a8 8 0 0 1 16 0Z" />
                <circle cx="12" cy="10" r="3" />
            </g>
        </symbol>
    </defs>
</svg>